<svg xmlns='http://www.w3.org/2000/svg' style='display:none'>
  <!-- Icons sourced from Font Awesome Free 7.1.0 (CC BY 4.0). https://fontawesome.com -->
  <symbol id='icon-calendar-alt' viewBox='0 0 448 512'>
    <path fill="currentColor" d="M128 0c17.7 0 32 14.3 32 32l0 32 128 0 0-32c0-17.7 14.3-32 32-32s32 14.3 32 32l0 32 32 0c35.3 0 64 28.7 64 64l0 288c0 35.3-28.7 64-64 64L64 480c-35.3 0-64-28.7-64-64L0 128C0 92.7 28.7 64 64 64l32 0 0-32c0-17.7 14.3-32 32-32zM64 240l0 32c0 8.8 7.2 16 16 16l32 0c8.8 0 16-7.2 16-16l0-32c0-8.8-7.2-16-16-16l-32 0c-8.8 0-16 7.2-16 16zm128 0l0 32c0 8.8 7.2 16 16 16l32 0c8.8 0 16-7.2 16-16l0-32c0-8.8-7.2-16-16-16l-32 0c-8.8 0-16 7.2-16 16zm144-16c-8.8 0-16 7.2-16 16l0 32c0 8.8 7.2 16 16 16l32 0c8.8 0 16-7.2 16-16l0-32c0-8.8-7.2-16-16-16l-32 0zM64 368l0 32c0 8.8 7.2 16 16 16l32 0c8.8 0 16-7.2 16-16l0-32c0-8.8-7.2-16-16-16l-32 0c-8.8 0-16 7.2-16 16zm144-16c-8.8 0-16 7.2-16 16l0 32c0 8.8 7.2 16 16 16l32 0c8.8 0 16-7.2 16-16l0-32c0-8.8-7.2-16-16-16l-32 0zm112 16l0 32c0 8.8 7.2 16 16 16l32 0c8.8 0 16-7.2 16-16l0-32c0-8.8-7.2-16-16-16l-32 0c-8.8 0-16 7.2-16 16z" />
  </symbol>
  <symbol id='icon-car' viewBox='0 0 512 512'>
    <path fill="currentColor" d="M135.2 117.4l-26.1 74.6 293.8 0-26.1-74.6C372.3 104.6 360.2 96 346.6 96L165.4 96c-13.6 0-25.7 8.6-30.2 21.4zM39.6 196.8L74.8 96.3C88.3 57.8 124.6 32 165.4 32l181.2 0c40.8 0 77.1 25.8 90.6 64.3l35.2 100.5c23.2 9.6 39.6 32.5 39.6 59.2l0 192c0 17.7-14.3 32-32 32l-32 0c-17.7 0-32-14.3-32-32l0-32-320 0 0 32c0 17.7-14.3 32-32 32l-32 0c-17.7 0-32-14.3-32-32L0 256c0-26.7 16.4-49.6 39.6-59.2zM128 304a32 32 0 1 0 -64 0 32 32 0 1 0 64 0zm288 32a32 32 0 1 0 0-64 32 32 0 1 0 0 64z" />
  </symbol>
  <symbol id='icon-chevron-up' viewBox='0 0 448 512'>
    <path fill="currentColor" d="M201.4 105.4c12.5-12.5 32.8-12.5 45.3 0l192 192c12.5 12.5 12.5 32.8 0 45.3s-32.8 12.5-45.3 0L224 173.3 54.6 342.6c-12.5 12.5-32.8 12.5-45.3 0s-12.5-32.8 0-45.3l192-192z" />
  </symbol>
  <symbol id='icon-cog' viewBox='0 0 512 512'>
    <path fill="currentColor" d="M195.1 9.5C198.1-5.3 211.2-16 226.4-16l59.8 0c15.2 0 28.3 10.7 31.3 25.5L332 79.5c14.1 6 27.3 13.7 39.3 22.8l67.8-22.5c14.4-4.8 30.2 1.2 37.8 14.4l29.9 51.8c7.6 13.2 4.9 29.8-6.5 39.9L447 233.3c.9 7.4 1.3 15 1.3 22.7s-.5 15.3-1.3 22.7l53.4 47.5c11.4 10.1 14 26.8 6.5 39.9l-29.9 51.8c-7.6 13.1-23.4 19.2-37.8 14.4l-67.8-22.5c-12.1 9.1-25.3 16.7-39.3 22.8l-14.4 69.9c-3.1 14.9-16.2 25.5-31.3 25.5l-59.8 0c-15.2 0-28.3-10.7-31.3-25.5l-14.4-69.9c-14.1-6-27.2-13.7-39.3-22.8L73.5 432.3c-14.4 4.8-30.2-1.2-37.8-14.4L5.8 366.1c-7.6-13.2-4.9-29.8 6.5-39.9l53.4-47.5c-.9-7.4-1.3-15-1.3-22.7s.5-15.3 1.3-22.7L12.3 185.8c-11.4-10.1-14-26.8-6.5-39.9L35.7 94.1c7.6-13.2 23.4-19.2 37.8-14.4l67.8 22.5c12.1-9.1 25.3-16.7 39.3-22.8L195.1 9.5zM256.3 336a80 80 0 1 0 -.6-160 80 80 0 1 0 .6 160z" />
  </symbol>
  <symbol id='icon-envelope' viewBox='0 0 512 512'>
    <path fill="currentColor" d="M48 64c-26.5 0-48 21.5-48 48 0 15.1 7.1 29.3 19.2 38.4l208 156c17.1 12.8 40.5 12.8 57.6 0l208-156c12.1-9.1 19.2-23.3 19.2-38.4 0-26.5-21.5-48-48-48L48 64zM0 196L0 384c0 35.3 28.7 64 64 64l384 0c35.3 0 64-28.7 64-64l0-188-198.4 148.8c-34.1 25.6-81.1 25.6-115.2 0L0 196z" />
  </symbol>
  <symbol id='icon-facebook-f' viewBox='0 0 320 512'>
    <path fill="currentColor" d="M80 299.3l0 212.7 116 0 0-212.7 86.5 0 18-97.8-104.5 0 0-34.6c0-51.7 20.3-71.5 72.7-71.5 16.3 0 29.4 .4 37 1.2l0-88.7C291.4 4 256.4 0 236.2 0 129.3 0 80 50.5 80 159.4l0 42.1-66 0 0 97.8 66 0z" />
  </symbol>
  <symbol id='icon-fax' viewBox='0 0 512 512'>
    <path fill="currentColor" d="M160 64l0 80 64 0 0-80 146.7 0 45.3 45.3 0 34.7 64 0 0-34.7c0-17-6.7-33.3-18.7-45.3L416 18.7C404 6.7 387.7 0 370.7 0L224 0c-35.3 0-64 28.7-64 64zM32 128c-17.7 0-32 14.3-32 32L0 448c0 17.7 14.3 32 32 32l48 0c17.7 0 32-14.3 32-32l0-288c0-17.7-14.3-32-32-32l-48 0zm448 64l-320 0 0 256c0 17.7 14.3 32 32 32l288 0c17.7 0 32-14.3 32-32l0-224c0-17.7-14.3-32-32-32zM224 288a24 24 0 1 1 48 0 24 24 0 1 1 -48 0zm0 96a24 24 0 1 1 48 0 24 24 0 1 1 -48 0zM336 264a24 24 0 1 1 0 48 24 24 0 1 1 0-48zM312 384a24 24 0 1 1 48 0 24 24 0 1 1 -48 0zM424 264a24 24 0 1 1 0 48 24 24 0 1 1 0-48zM400 384a24 24 0 1 1 48 0 24 24 0 1 1 -48 0z" />
  </symbol>
  <symbol id='icon-globe-americas' viewBox='0 0 512 512'>
    <path fill="currentColor" d="M55.7 199.7l30.9 30.9c6 6 14.1 9.4 22.6 9.4l21.5 0c8.5 0 16.6 3.4 22.6 9.4l29.3 29.3c6 6 9.4 14.1 9.4 22.6l0 37.5c0 8.5 3.4 16.6 9.4 22.6l13.3 13.3c6 6 9.4 14.1 9.4 22.6l0 18.7c0 17.7 14.3 32 32 32s32-14.3 32-32l0-2.7c0-8.5 3.4-16.6 9.4-22.6l45.3-45.3c6-6 9.4-14.1 9.4-22.6l0-34.7c0-17.7-14.3-32-32-32l-82.7 0c-8.5 0-16.6-3.4-22.6-9.4l-16-16c-4.2-4.2-6.6-10-6.6-16 0-12.5 10.1-22.6 22.6-22.6l34.7 0c12.5 0 22.6-10.1 22.6-22.6 0-6-2.4-11.8-6.6-16l-19.7-19.7C242 130 240 125.1 240 120s2-10 5.7-13.7l17.3-17.3c5.8-5.8 9.1-13.7 9.1-21.9 0-7.2-2.4-13.7-6.4-18.9-3.2-.1-6.4-.2-9.6-.2-95.4 0-175.7 64.2-200.3 151.7zM464 256c0-34.6-8.4-67.2-23.4-95.8-6.4 .9-12.7 3.9-17.9 9.1l-13.4 13.4c-6 6-9.4 14.1-9.4 22.6l0 34.7c0 17.7 14.3 32 32 32l24.1 0c2.5 0 5-.3 7.3-.8 .4-5 .5-10.1 .5-15.2zM0 256a256 256 0 1 1 512 0 256 256 0 1 1 -512 0z" />
  </symbol>
  <symbol id='icon-hands-helping' viewBox='0 0 576 512'>
    <path fill="currentColor" d="M268.9 53.2L152.3 182.8c-4.6 5.1-4.4 13 .5 17.9 30.5 30.5 80 30.5 110.5 0l31.8-31.8c4.2-4.2 9.5-6.5 14.9-6.9 6.8-.6 13.8 1.7 19 6.9L505.6 344 576 288 576 0 464 64 440.2 48.1C424.4 37.6 405.9 32 386.9 32l-70.4 0c-1.1 0-2.3 0-3.4 .1-16.9 .9-32.8 8.5-44.2 21.1zM116.6 150.7L223.4 32 183.8 32c-25.5 0-49.9 10.1-67.9 28.1L0 192 0 544 144 408 156.4 418.3c23 19.2 52 29.7 81.9 29.7l15.7 0-7-7c-9.4-9.4-9.4-24.6 0-33.9s24.6-9.4 33.9 0l41 41 9 0c19.1 0 37.8-4.3 54.8-12.3L359 409c-9.4-9.4-9.4-24.6 0-33.9s24.6-9.4 33.9 0l32 32 17.5-17.5c8.9-8.9 11.5-21.8 7.6-33.1l-137.9-136.8-14.9 14.9c-49.3 49.3-129.1 49.3-178.4 0-23-23-23.9-59.9-2.2-84z" />
  </symbol>
  <symbol id='icon-home' viewBox='0 0 512 512'>
    <path fill="currentColor" d="M277.8 8.6c-12.3-11.4-31.3-11.4-43.5 0l-224 208c-9.6 9-12.8 22.9-8 35.1S18.8 272 32 272l16 0 0 176c0 35.3 28.7 64 64 64l288 0c35.3 0 64-28.7 64-64l0-176 16 0c13.2 0 25-8.1 29.8-20.3s1.6-26.2-8-35.1l-224-208zM240 320l32 0c26.5 0 48 21.5 48 48l0 96-128 0 0-96c0-26.5 21.5-48 48-48z" />
  </symbol>
  <symbol id='icon-hotel' viewBox='0 0 512 512'>
    <path fill="currentColor" d="M16 24C16 10.7 26.7 0 40 0L472 0c13.3 0 24 10.7 24 24s-10.7 24-24 24l-8 0 0 416 8 0c13.3 0 24 10.7 24 24s-10.7 24-24 24L40 512c-13.3 0-24-10.7-24-24s10.7-24 24-24l8 0 0-416-8 0C26.7 48 16 37.3 16 24zm208 88l0 32c0 8.8 7.2 16 16 16l32 0c8.8 0 16-7.2 16-16l0-32c0-8.8-7.2-16-16-16l-32 0c-8.8 0-16 7.2-16 16zM128 96c-8.8 0-16 7.2-16 16l0 32c0 8.8 7.2 16 16 16l32 0c8.8 0 16-7.2 16-16l0-32c0-8.8-7.2-16-16-16l-32 0zm96 112l0 32c0 8.8 7.2 16 16 16l32 0c8.8 0 16-7.2 16-16l0-32c0-8.8-7.2-16-16-16l-32 0c-8.8 0-16 7.2-16 16zM352 96c-8.8 0-16 7.2-16 16l0 32c0 8.8 7.2 16 16 16l32 0c8.8 0 16-7.2 16-16l0-32c0-8.8-7.2-16-16-16l-32 0zM112 208l0 32c0 8.8 7.2 16 16 16l32 0c8.8 0 16-7.2 16-16l0-32c0-8.8-7.2-16-16-16l-32 0c-8.8 0-16 7.2-16 16zm240-16c-8.8 0-16 7.2-16 16l0 32c0 8.8 7.2 16 16 16l32 0c8.8 0 16-7.2 16-16l0-32c0-8.8-7.2-16-16-16l-32 0zM288 384l43.8 0c9.9 0 17.5-9 14-18.2-13.8-36.1-48.8-61.8-89.7-61.8s-75.9 25.7-89.7 61.8c-3.5 9.2 4.1 18.2 14 18.2l43.8 0 0 80 64 0 0-80z" />
  </symbol>
  <symbol id='icon-info-circle' viewBox='0 0 512 512'>
    <path fill="currentColor" d="M256 512a256 256 0 1 0 0-512 256 256 0 1 0 0 512zM224 160a32 32 0 1 1 64 0 32 32 0 1 1 -64 0zm-8 64l48 0c13.3 0 24 10.7 24 24l0 88 8 0c13.3 0 24 10.7 24 24s-10.7 24-24 24l-80 0c-13.3 0-24-10.7-24-24s10.7-24 24-24l24 0 0-64-24 0c-13.3 0-24-10.7-24-24s10.7-24 24-24z" />
  </symbol>
  <symbol id='icon-instagram' viewBox='0 0 448 512'>
    <path fill="currentColor" d="M224.3 141a115 115 0 1 0 -.6 230 115 115 0 1 0 .6-230zm-.6 40.4a74.6 74.6 0 1 1 .6 149.2 74.6 74.6 0 1 1 -.6-149.2zm93.4-45.1a26.8 26.8 0 1 1 53.6 0 26.8 26.8 0 1 1 -53.6 0zm129.7 27.2c-1.7-35.9-9.9-67.7-36.2-93.9-26.2-26.2-58-34.4-93.9-36.2-37-2.1-147.9-2.1-184.9 0-35.8 1.7-67.6 9.9-93.9 36.1s-34.4 58-36.2 93.9c-2.1 37-2.1 147.9 0 184.9 1.7 35.9 9.9 67.7 36.2 93.9s58 34.4 93.9 36.2c37 2.1 147.9 2.1 184.9 0 35.9-1.7 67.7-9.9 93.9-36.2 26.2-26.2 34.4-58 36.2-93.9 2.1-37 2.1-147.8 0-184.8zM399 388c-7.8 19.6-22.9 34.7-42.6 42.6-29.5 11.7-99.5 9-132.1 9s-102.7 2.6-132.1-9c-19.6-7.8-34.7-22.9-42.6-42.6-11.7-29.5-9-99.5-9-132.1s-2.6-102.7 9-132.1c7.8-19.6 22.9-34.7 42.6-42.6 29.5-11.7 99.5-9 132.1-9s102.7-2.6 132.1 9c19.6 7.8 34.7 22.9 42.6 42.6 11.7 29.5 9 99.5 9 132.1s2.7 102.7-9 132.1z" />
  </symbol>
  <symbol id='icon-long-arrow-alt-right' viewBox='0 0 576 512'>
    <path fill="currentColor" d="M566.6 233.4c12.5 12.5 12.5 32.8 0 45.3l-128 128c-9.2 9.2-22.9 11.9-34.9 6.9S384 396.9 384 384l0-64-336 0c-26.5 0-48-21.5-48-48l0-32c0-26.5 21.5-48 48-48l336 0 0-64c0-12.9 7.8-24.6 19.8-29.6s25.7-2.2 34.9 6.9l128 128z" />
  </symbol>
  <symbol id='icon-map-marker-alt' viewBox='0 0 384 512'>
    <path fill="currentColor" d="M0 188.6C0 84.4 86 0 192 0S384 84.4 384 188.6c0 119.3-120.2 262.3-170.4 316.8-11.8 12.8-31.5 12.8-43.3 0-50.2-54.5-170.4-197.5-170.4-316.8zM192 256a64 64 0 1 0 0-128 64 64 0 1 0 0 128z" />
  </symbol>
  <symbol id='icon-mobile-alt' viewBox='0 0 384 512'>
    <path fill="currentColor" d="M16 64C16 28.7 44.7 0 80 0L304 0c35.3 0 64 28.7 64 64l0 384c0 35.3-28.7 64-64 64L80 512c-35.3 0-64-28.7-64-64L16 64zm64 0l0 304 224 0 0-304-224 0zM192 472c17.7 0 32-14.3 32-32s-14.3-32-32-32-32 14.3-32 32 14.3 32 32 32z" />
  </symbol>
  <symbol id='icon-phone' viewBox='0 0 512 512'>
    <path fill="currentColor" d="M160.2 25C152.3 6.1 131.7-3.9 112.1 1.4l-5.5 1.5c-64.6 17.6-119.8 80.2-103.7 156.4 37.1 175 174.8 312.7 349.8 349.8 76.3 16.2 138.8-39.1 156.4-103.7l1.5-5.5c5.4-19.7-4.7-40.3-23.5-48.1l-97.3-40.5c-16.5-6.9-35.6-2.1-47 11.8l-38.6 47.2C233.9 335.4 177.3 277 144.8 205.3L189 169.3c13.9-11.3 18.6-30.4 11.8-47L160.2 25z" />
  </symbol>
  <symbol id='icon-phone-alt' viewBox='0 0 512 512'>
    <path fill="currentColor" d="M351.8 25c7.8-18.8 28.4-28.9 48.1-23.5l5.5 1.5c64.6 17.6 119.8 80.2 103.7 156.4-37.1 175-174.8 312.7-349.8 349.8-76.3 16.2-138.8-39.1-156.4-103.7l-1.5-5.5c-5.4-19.7 4.7-40.3 23.5-48.1l97.3-40.5c16.5-6.9 35.6-2.1 47 11.8l38.6 47.2c70.3-34.9 126.8-93.3 159.3-164.9l-44.1-36.1c-13.9-11.3-18.6-30.4-11.8-47L351.8 25z" />
  </symbol>
  <symbol id='icon-plane' viewBox='0 0 576 512'>
    <path fill="currentColor" d="M520 200c30.9 0 56 25.1 56 56s-25.1 56-56 56l-127.3 0-159.2 173.6c-6.1 6.6-14.6 10.4-23.6 10.4l-43.7 0c-10.9 0-18.6-10.7-15.2-21.1l54.3-162.9-99.7 0-52.8 66c-3 3.8-7.6 6-12.5 6l-19.8 0c-10.4 0-18-9.8-15.5-19.9L32 256 5 147.9C2.4 137.8 10.1 128 20.5 128l19.8 0c4.9 0 9.5 2.2 12.5 6l52.8 66 99.7 0-54.3-162.9C147.6 26.7 155.3 16 166.2 16l43.7 0c9 0 17.5 3.8 23.6 10.4L392.7 200 520 200z" />
  </symbol>
  <symbol id='icon-quote-left' viewBox='0 0 448 512'>
    <path fill="currentColor" d="M0 216C0 149.7 53.7 96 120 96l8 0c17.7 0 32 14.3 32 32s-14.3 32-32 32l-8 0c-30.9 0-56 25.1-56 56l0 8 64 0c35.3 0 64 28.7 64 64l0 64c0 35.3-28.7 64-64 64l-64 0c-35.3 0-64-28.7-64-64L0 216zm256 0c0-66.3 53.7-120 120-120l8 0c17.7 0 32 14.3 32 32s-14.3 32-32 32l-8 0c-30.9 0-56 25.1-56 56l0 8 64 0c35.3 0 64 28.7 64 64l0 64c0 35.3-28.7 64-64 64l-64 0c-35.3 0-64-28.7-64-64l0-136z" />
  </symbol>
  <symbol id='icon-quote-right' viewBox='0 0 448 512'>
    <path fill="currentColor" d="M448 296c0 66.3-53.7 120-120 120l-8 0c-17.7 0-32-14.3-32-32s14.3-32 32-32l8 0c30.9 0 56-25.1 56-56l0-8-64 0c-35.3 0-64-28.7-64-64l0-64c0-35.3 28.7-64 64-64l64 0c35.3 0 64 28.7 64 64l0 136zm-256 0c0 66.3-53.7 120-120 120l-8 0c-17.7 0-32-14.3-32-32s14.3-32 32-32l8 0c30.9 0 56-25.1 56-56l0-8-64 0c-35.3 0-64-28.7-64-64l0-64c0-35.3 28.7-64 64-64l64 0c35.3 0 64 28.7 64 64l0 136z" />
  </symbol>
  <symbol id='icon-star' viewBox='0 0 576 512'>
    <path fill="currentColor" d="M309.5-18.9c-4.1-8-12.4-13.1-21.4-13.1s-17.3 5.1-21.4 13.1L193.1 125.3 33.2 150.7c-8.9 1.4-16.3 7.7-19.1 16.3s-.5 18 5.8 24.4l114.4 114.5-25.2 159.9c-1.4 8.9 2.3 17.9 9.6 23.2s16.9 6.1 25 2L288.1 417.6 432.4 491c8 4.1 17.7 3.3 25-2s11-14.2 9.6-23.2L441.7 305.9 556.1 191.4c6.4-6.4 8.6-15.8 5.8-24.4s-10.1-14.9-19.1-16.3L383 125.3 309.5-18.9z" />
  </symbol>
  <symbol id='icon-suitcase-rolling' viewBox='0 0 384 512'>
    <path fill="currentColor" d="M144 24c0-4.4 3.6-8 8-8l80 0c4.4 0 8 3.6 8 8l0 72-96 0 0-72zM320 96l-32 0 0-72c0-30.9-25.1-56-56-56l-80 0C121.1-32 96-6.9 96 24l0 72-32 0C28.7 96 0 124.7 0 160L0 448c0 35.3 28.7 64 64 64 0 17.7 14.3 32 32 32s32-14.3 32-32l128 0c0 17.7 14.3 32 32 32s32-14.3 32-32c35.3 0 64-28.7 64-64l0-288c0-35.3-28.7-64-64-64zM120 208l144 0c13.3 0 24 10.7 24 24s-10.7 24-24 24l-144 0c-13.3 0-24-10.7-24-24s10.7-24 24-24zm0 128l144 0c13.3 0 24 10.7 24 24s-10.7 24-24 24l-144 0c-13.3 0-24-10.7-24-24s10.7-24 24-24z" />
  </symbol>
  <symbol id='icon-whatsapp' viewBox='0 0 448 512'>
    <path fill="currentColor" d="M380.9 97.1c-41.9-42-97.7-65.1-157-65.1-122.4 0-222 99.6-222 222 0 39.1 10.2 77.3 29.6 111L0 480 117.7 449.1c32.4 17.7 68.9 27 106.1 27l.1 0c122.3 0 224.1-99.6 224.1-222 0-59.3-25.2-115-67.1-157zm-157 341.6c-33.2 0-65.7-8.9-94-25.7l-6.7-4-69.8 18.3 18.6-68.1-4.4-7c-18.5-29.4-28.2-63.3-28.2-98.2 0-101.7 82.8-184.5 184.6-184.5 49.3 0 95.6 19.2 130.4 54.1s56.2 81.2 56.1 130.5c0 101.8-84.9 184.6-186.6 184.6zM325.1 300.5c-5.5-2.8-32.8-16.2-37.9-18-5.1-1.9-8.8-2.8-12.5 2.8s-14.3 18-17.6 21.8c-3.2 3.7-6.5 4.2-12 1.4-32.6-16.3-54-29.1-75.5-66-5.7-9.8 5.7-9.1 16.3-30.3 1.8-3.7 .9-6.9-.5-9.7s-12.5-30.1-17.1-41.2c-4.5-10.8-9.1-9.3-12.5-9.5-3.2-.2-6.9-.2-10.6-.2s-9.7 1.4-14.8 6.9c-5.1 5.6-19.4 19-19.4 46.3s19.9 53.7 22.6 57.4c2.8 3.7 39.1 59.7 94.8 83.8 35.2 15.2 49 16.5 66.6 13.9 10.7-1.6 32.8-13.4 37.4-26.4s4.6-24.1 3.2-26.4c-1.3-2.5-5-3.9-10.5-6.6z" />
  </symbol>
</svg>
