<?xml version="1.0" encoding="UTF-8"?><svg id="Layer_2" xmlns="http://www.w3.org/2000/svg" viewBox="0 0 338.27 58.85"><defs><style>.cls-1{fill:#fff;}</style></defs><g id="Layer_1-2"><g><path class="cls-1" d="m56.34,0l-17.94,17.94L20.45,0,0,20.45l38.4,38.4,17.94-17.94h0s20.45-20.45,20.45-20.45L56.34,0Zm0,5.01l15.39,15.39h-30.77l15.39-15.39Zm-17.94,48.81L5.01,20.45l15.44-15.44,15.48,15.48h0s17.91,17.91,17.91,17.91l-15.43,15.43Z"/><path class="cls-1" d="m116.88,26.93v11.52h-4.85v-9.95c0-2.61-1.33-4.05-3.53-4.05s-3.83,1.36-3.83,4.09v9.91h-4.87v-9.95c0-2.61-1.31-4.05-3.53-4.05-2.09,0-3.83,1.36-3.83,4.09v9.91h-4.87v-18.09h4.74v2.13c1.29-1.92,3.27-2.61,5.32-2.61,2.61,0,4.76,1.18,5.97,3.1,1.4-2.3,3.77-3.1,6.14-3.1,4.26,0,7.13,2.86,7.13,7.06Z"/><path class="cls-1" d="m139.65,38.44h-4.76v-2c-1.18,1.46-2.93,2.46-5.41,2.46-4.98,0-8.75-4.09-8.75-9.52s3.77-9.52,8.75-9.52c2.48,0,4.22,1.01,5.41,2.48v-2h4.76v18.09Zm-13.94-9.05c0,2.76,1.81,4.98,4.67,4.98s4.67-2.13,4.67-4.98-1.89-4.98-4.67-4.98-4.67,2.22-4.67,4.98Z"/><path class="cls-1" d="m157.71,22.24v-10.68h4.85v26.88h-4.76v-2c-1.18,1.46-2.93,2.46-5.41,2.46-4.98,0-8.75-4.09-8.75-9.52s3.77-9.52,8.75-9.52c2.43,0,4.14.95,5.32,2.37Zm-9.09,7.15c0,2.76,1.81,4.98,4.67,4.98s4.67-2.13,4.67-4.98-1.89-4.98-4.67-4.98-4.67,2.22-4.67,4.98Z"/><path class="cls-1" d="m184.49,29.37c0,.56-.04,1.23-.09,1.64h-12.82c.52,2.61,2.35,3.75,4.65,3.75,1.57,0,3.27-.63,4.57-1.74l2.86,3.14c-2.05,1.89-4.67,2.74-7.71,2.74-5.54,0-9.39-3.77-9.39-9.46s3.73-9.58,9.15-9.58,8.77,3.86,8.79,9.5Zm-12.9-1.68h8.01c-.45-2.31-1.85-3.62-3.94-3.62-2.3,0-3.64,1.38-4.07,3.62Z"/><path class="cls-1" d="m209.52,36.23l6.08-15.72h2.25l-7.03,17.93h-2.55l-5.91-15.66-5.87,15.66h-2.53l-7.03-17.93h2.31l6.06,15.7,5.89-15.7h2.44l5.91,15.72Z"/><path class="cls-1" d="m224.93,14.07c0,.88-.69,1.54-1.56,1.54s-1.54-.67-1.54-1.54.67-1.58,1.54-1.58,1.56.7,1.56,1.58Zm-.48,24.37h-2.17v-17.93h2.17v17.93Z"/><path class="cls-1" d="m243.51,22.49h-8.27v9.78c0,3.03,1.6,4.42,3.98,4.42,1.54,0,2.95-.53,4-1.37l1.03,1.62c-1.28,1.07-3.05,1.79-5.2,1.79-3.74,0-5.98-2.08-5.98-6.42v-9.81h-4.12v-1.98h4.12v-5.85h2.17v5.85h8.27v1.98Z"/><path class="cls-1" d="m250.77,23.61c1.41-2.36,3.93-3.39,6.38-3.39,4.5,0,7.55,2.78,7.55,7.22v10.99h-2.17v-10.33c0-3.62-2.1-5.83-5.75-5.83-3.37,0-6,2.42-6,5.95v10.21h-2.17V11h2.17v12.61Z"/><path class="cls-1" d="m274.46,38.44h-4.87V11.57h4.87v26.88Z"/><path class="cls-1" d="m298.02,29.39c0,5.45-4.16,9.52-9.8,9.52s-9.76-4.07-9.76-9.52,4.14-9.52,9.76-9.52,9.8,4.07,9.8,9.52Zm-14.6,0c0,2.93,2.05,4.98,4.8,4.98s4.82-2.05,4.82-4.98-2.07-4.98-4.82-4.98-4.8,2.05-4.8,4.98Z"/><path class="cls-1" d="m312.01,38.44h-5.62l-7.15-18.09h5.3l4.69,12.95,4.72-12.95h5.13l-7.07,18.09Z"/><path class="cls-1" d="m338.27,29.37c0,.56-.04,1.23-.09,1.64h-12.82c.52,2.61,2.35,3.75,4.65,3.75,1.57,0,3.27-.63,4.57-1.74l2.86,3.14c-2.05,1.89-4.67,2.74-7.71,2.74-5.54,0-9.39-3.77-9.39-9.46s3.73-9.58,9.15-9.58,8.77,3.86,8.79,9.5Zm-12.9-1.68h8.01c-.45-2.31-1.85-3.62-3.94-3.62-2.3,0-3.64,1.38-4.07,3.62Z"/></g></g></svg>