<svg xmlns="http://www.w3.org/2000/svg" viewBox="0 0 338.27 58.85"><defs><style>.cls-1{fill:#ed2324;}</style></defs><g id="Layer_2" data-name="Layer 2"><g id="Layer_1-2" data-name="Layer 1"><path class="cls-1" d="M56.34,0,38.4,18,20.45,0,0,20.45l38.4,38.4L56.34,40.91h0L76.79,20.46Zm0,5L71.73,20.41H41ZM38.4,53.84,5,20.45,20.45,5,35.93,20.49h0l17.9,17.9Z"/><path d="M116.88,26.93V38.44H112V28.5c0-2.62-1.33-4.06-3.53-4.06s-3.83,1.37-3.83,4.09v9.91H99.8V28.5c0-2.62-1.3-4.06-3.52-4.06s-3.83,1.37-3.83,4.09v9.91H87.58V20.36h4.74v2.13a6,6,0,0,1,5.32-2.62,6.85,6.85,0,0,1,6,3.1,7.3,7.3,0,0,1,13.27,4Z"/><path d="M139.65,38.44h-4.76v-2a6.65,6.65,0,0,1-5.41,2.46c-5,0-8.76-4.09-8.76-9.52s3.77-9.52,8.76-9.52a6.64,6.64,0,0,1,5.41,2.48v-2h4.76Zm-13.94-9a4.67,4.67,0,1,0,9.33,0,4.67,4.67,0,1,0-9.33,0Z"/><path d="M157.71,22.24V11.57h4.86V38.44h-4.76v-2a6.66,6.66,0,0,1-5.42,2.46c-5,0-8.75-4.09-8.75-9.52s3.77-9.52,8.75-9.52A6.56,6.56,0,0,1,157.71,22.24Zm-9.09,7.15a4.68,4.68,0,1,0,9.34,0,4.68,4.68,0,1,0-9.34,0Z"/><path d="M184.49,29.37A13.44,13.44,0,0,1,184.4,31H171.58a4.36,4.36,0,0,0,4.65,3.75A7.34,7.34,0,0,0,180.8,33l2.85,3.14a11,11,0,0,1-7.7,2.74c-5.55,0-9.39-3.77-9.39-9.46s3.73-9.58,9.14-9.58C180.91,19.87,184.48,23.74,184.49,29.37ZM171.6,27.69h8c-.44-2.31-1.84-3.62-3.93-3.62C173.37,24.07,172,25.45,171.6,27.69Z"/><path d="M209.52,36.23l6.08-15.72h2.25l-7,17.93h-2.56l-5.9-15.67-5.87,15.67H194l-7-17.93h2.31l6.06,15.7,5.89-15.7h2.43Z"/><path d="M224.93,14.07a1.53,1.53,0,0,1-1.56,1.54,1.51,1.51,0,0,1-1.54-1.54,1.55,1.55,0,0,1,1.54-1.59A1.56,1.56,0,0,1,224.93,14.07Zm-.47,24.37h-2.18V20.51h2.18Z"/><path d="M243.51,22.49h-8.27v9.77c0,3,1.6,4.42,4,4.42a6.38,6.38,0,0,0,4-1.37l1,1.62a8,8,0,0,1-5.2,1.79c-3.73,0-6-2.07-6-6.42V22.49H229v-2h4.12V14.66h2.17v5.85h8.27Z"/><path d="M250.77,23.61a7.23,7.23,0,0,1,6.38-3.39c4.5,0,7.55,2.78,7.55,7.22v11h-2.18V28.11c0-3.62-2.09-5.83-5.75-5.83a5.79,5.79,0,0,0-6,5.94V38.44h-2.18V11h2.18Z"/><path d="M274.46,38.44h-4.87V11.57h4.87Z"/><path d="M298,29.39a9.79,9.79,0,1,1-9.8-9.52A9.41,9.41,0,0,1,298,29.39Zm-14.6,0a4.81,4.81,0,1,0,9.61,0,4.81,4.81,0,1,0-9.61,0Z"/><path d="M312,38.44h-5.62l-7.14-18.08h5.3l4.68,13,4.72-13h5.14Z"/><path d="M338.27,29.37a15.77,15.77,0,0,1-.09,1.65H325.35A4.38,4.38,0,0,0,330,34.77,7.3,7.3,0,0,0,334.57,33l2.86,3.14a11,11,0,0,1-7.71,2.74c-5.54,0-9.39-3.77-9.39-9.46s3.74-9.58,9.15-9.58C334.69,19.87,338.25,23.74,338.27,29.37Zm-12.9-1.68h8c-.45-2.31-1.85-3.62-3.94-3.62C327.15,24.07,325.8,25.45,325.37,27.69Z"/></g></g></svg>