<svg width="64" height="64" viewBox="0 0 64 64" xmlns="http://www.w3.org/2000/svg">
  <defs>
    <linearGradient id="waGradient" x1="0%" y1="0%" x2="100%" y2="100%">
      <stop offset="0%" stop-color="#25D366"/>
      <stop offset="100%" stop-color="#19A55B"/>
    </linearGradient>
  </defs>
  <circle cx="32" cy="32" r="30" fill="url(#waGradient)" stroke="#0F6B38" stroke-width="2"/>
  <path
    d="M40.2 33.4c-.3-.2-1.9-1-2.2-1.2-.3-.1-.5-.2-.7.2-.2.3-.8 1.2-1 1.4-.2.2-.4.3-.7.1-.3-.2-1.4-.5-2.6-1.6-.9-.8-1.5-1.8-1.7-2.1-.2-.3 0-.5.1-.6.1-.1.3-.3.4-.5.2-.2.3-.3.4-.5.1-.2.1-.4 0-.6-.1-.2-.7-1.8-.9-2.4-.2-.6-.5-.5-.7-.5h-.6c-.2 0-.6.1-.9.4-.3.3-1.1 1.1-1.1 2.7 0 1.6 1.2 3.2 1.4 3.4.2.2 2.3 3.5 5.6 4.8.8.3 1.4.5 1.9.6.8.2 1.6.2 2.2.1.7-.1 1.9-.8 2.1-1.5.3-.7.3-1.4.2-1.5-.1-.1-.2-.1-.4-.2z"
    fill="#fff"/>
</svg>
