<svg width="18" height="18" viewBox="0 0 18 18" xmlns="http://www.w3.org/2000/svg">
  <path fill="#ffffff" d="M9 0C4.03 0 0 3.87 0 8.64c0 1.91.69 3.66 1.85 5.06L1 18l4.48-1.44c1.15.43 2.39.67 3.52.67 4.97 0 9-3.87 9-8.64C18 3.87 13.97 0 9 0zm0 15.75c-1.07 0-2.2-.25-3.2-.69l-.23-.1-2.65.86.86-2.54-.15-.26C3.08 11.7 2.63 10.2 2.63 8.64 2.63 4.96 5.47 2 9 2s6.37 2.96 6.37 6.64c0 3.68-2.84 6.64-6.37 6.64zm3.68-4.79c-.2-.1-1.2-.59-1.38-.66-.19-.07-.33-.1-.46.1-.14.2-.53.66-.65.79-.12.13-.24.15-.44.05-.2-.1-.86-.3-1.62-.96-.6-.53-1-1.19-1.12-1.39-.12-.2-.01-.31.09-.41.09-.09.2-.23.3-.35.1-.12.13-.2.2-.34.07-.14.04-.26-.02-.36-.06-.1-.46-1.11-.63-1.52-.17-.41-.34-.35-.46-.35h-.39c-.14 0-.36.05-.55.26-.19.2-.73.71-.73 1.74s.76 2.02.87 2.16c.11.15 1.49 2.37 3.62 3.23.51.21.9.34 1.21.44.51.16.98.14 1.35.09.41-.06 1.26-.51 1.43-1 .18-.5.18-.91.13-.99-.05-.08-.18-.13-.38-.22z"/>
</svg>
